# xmcd
# 
# Track frame offsets:
#     150
#     39588
#     88038
#     158241
#     217510
#     276900
#     306862
# 
# Disc length: 4557
# 
# Revision: 0
# Processed by: cddbd v1.5.2PL0 Copyright (c) Steve Scherf et al.
# Submitted via: BonkEnc v1.0.6
# 
DISCID=5511cb07
DTITLE=Tolstoi Leo - Krieg und Frieden 14
DYEAR=0
DGENRE=Speech
TTITLE0=1401
TTITLE1=1402
TTITLE2=1403
TTITLE3=1404
TTITLE4=1405
TTITLE5=1406
TTITLE6=1407
EXTD=
EXTT0=
EXTT1=
EXTT2=
EXTT3=
EXTT4=
EXTT5=
EXTT6=
PLAYORDER=
